<svg width="27" height="26" viewBox="0 0 27 26" fill="none" xmlns="http://www.w3.org/2000/svg">
<path d="M17.55 10.9474C17.55 10.1947 18.1575 9.57895 18.9 9.57895C19.6425 9.57895 20.25 10.1947 20.25 10.9474C20.25 11.7 19.6425 12.3158 18.9 12.3158C18.1575 12.3158 17.55 11.7 17.55 10.9474ZM8.1 9.57895H14.85V6.84211H8.1V9.57895ZM27 7.52632V17.0642L23.193 18.3505L20.925 26H13.5V23.2632H10.8V26H3.375C3.375 26 0 14.4232 0 10.2632C0 6.10316 3.321 2.73684 7.425 2.73684H14.175C15.4035 1.08105 17.361 0 19.575 0C19.9086 7.19653e-05 20.237 0.0838039 20.531 0.243734C20.8249 0.403663 21.0753 0.634823 21.2597 0.916611C21.4442 1.1984 21.557 1.52206 21.5881 1.85876C21.6192 2.19545 21.5676 2.53471 21.438 2.84632C21.249 3.31158 21.087 3.84526 21.006 4.42L24.0705 7.52632H27ZM24.3 10.2632H22.95L18.225 5.47368C18.225 4.58421 18.3465 3.70842 18.576 2.86C17.2665 3.20211 16.2 4.18737 15.7545 5.47368H7.425C4.8195 5.47368 2.7 7.62211 2.7 10.2632C2.7 12.8358 4.347 19.3632 5.4 23.2632H8.1V20.5263H16.2V23.2632H18.9L21.006 16.2158L24.3 15.0937V10.2632Z" fill="#FE5937"/>
</svg>
