<svg width="204" height="30" viewBox="0 0 204 30" fill="none" xmlns="http://www.w3.org/2000/svg">
<path d="M2.002 24V7.178H13.416C14.716 7.178 15.8427 7.36 16.796 7.724C17.7667 8.07067 18.5207 8.62533 19.058 9.388C19.5953 10.1333 19.864 11.0953 19.864 12.274C19.864 13.0713 19.7253 13.7473 19.448 14.302C19.1707 14.8567 18.7807 15.3073 18.278 15.654C17.7927 16.0007 17.2293 16.2693 16.588 16.46C15.9467 16.6333 15.262 16.746 14.534 16.798L14.17 16.59C15.3833 16.6073 16.38 16.7113 17.16 16.902C17.94 17.0753 18.5207 17.4047 18.902 17.89C19.3007 18.358 19.5 19.06 19.5 19.996V24H16.042V20.23C16.042 19.5887 15.9293 19.0947 15.704 18.748C15.4787 18.384 15.0713 18.1327 14.482 17.994C13.91 17.8553 13.078 17.786 11.986 17.786H5.46V24H2.002ZM5.46 15.082H13.416C14.3867 15.082 15.1233 14.848 15.626 14.38C16.146 13.912 16.406 13.2793 16.406 12.482C16.406 11.7193 16.146 11.1387 15.626 10.74C15.1233 10.3413 14.3867 10.142 13.416 10.142H5.46V15.082ZM34.7423 19.71H38.0183C37.8796 20.594 37.507 21.3827 36.9003 22.076C36.311 22.7693 35.505 23.3153 34.4823 23.714C33.4596 24.1127 32.2116 24.312 30.7383 24.312C29.0916 24.312 27.6356 24.052 26.3703 23.532C25.105 22.9947 24.117 22.2233 23.4063 21.218C22.6956 20.2127 22.3403 18.9993 22.3403 17.578C22.3403 16.1567 22.687 14.9433 23.3803 13.938C24.0736 12.9153 25.0356 12.1353 26.2663 11.598C27.5143 11.0607 28.9703 10.792 30.6343 10.792C32.333 10.792 33.7456 11.0607 34.8723 11.598C35.999 12.1353 36.831 12.95 37.3683 14.042C37.923 15.1167 38.157 16.4947 38.0703 18.176H25.7463C25.833 18.8347 26.0756 19.4327 26.4743 19.97C26.8903 20.5073 27.445 20.932 28.1383 21.244C28.849 21.556 29.6896 21.712 30.6603 21.712C31.735 21.712 32.6276 21.53 33.3383 21.166C34.0663 20.7847 34.5343 20.2993 34.7423 19.71ZM30.4783 13.366C29.2303 13.366 28.2163 13.6433 27.4363 14.198C26.6563 14.7353 26.1536 15.4027 25.9283 16.2H34.7163C34.6296 15.3333 34.2136 14.6487 33.4683 14.146C32.7403 13.626 31.7436 13.366 30.4783 13.366ZM46.8774 24.286C45.5774 24.286 44.3987 24.0087 43.3414 23.454C42.3014 22.882 41.4781 22.0933 40.8714 21.088C40.2647 20.0653 39.9614 18.8867 39.9614 17.552C39.9614 16.1827 40.2561 14.9953 40.8454 13.99C41.4521 12.9847 42.2754 12.2047 43.3154 11.65C44.3554 11.078 45.5427 10.792 46.8774 10.792C48.0387 10.792 49.0267 10.9653 49.8414 11.312C50.6561 11.6587 51.3147 12.144 51.8174 12.768C52.3201 13.3747 52.6841 14.0853 52.9094 14.9C53.1521 15.7147 53.2734 16.5987 53.2734 17.552C53.2734 18.3147 53.1521 19.0947 52.9094 19.892C52.6667 20.672 52.2941 21.4 51.7914 22.076C51.2887 22.7347 50.6301 23.272 49.8154 23.688C49.0007 24.0867 48.0214 24.286 46.8774 24.286ZM47.9694 21.686C48.9921 21.686 49.8761 21.5127 50.6214 21.166C51.3667 20.8193 51.9387 20.334 52.3374 19.71C52.7361 19.086 52.9354 18.3667 52.9354 17.552C52.9354 16.668 52.7274 15.9227 52.3114 15.316C51.9127 14.692 51.3407 14.2153 50.5954 13.886C49.8674 13.5567 48.9921 13.392 47.9694 13.392C46.5307 13.392 45.4127 13.7733 44.6154 14.536C43.8181 15.2987 43.4194 16.304 43.4194 17.552C43.4194 18.384 43.6101 19.112 43.9914 19.736C44.3727 20.3427 44.9014 20.8193 45.5774 21.166C46.2707 21.5127 47.0681 21.686 47.9694 21.686ZM52.9354 5.878H56.3154V24H53.1694C53.1174 23.6013 53.0654 23.09 53.0134 22.466C52.9614 21.8247 52.9354 21.2267 52.9354 20.672V5.878ZM74.9084 24H71.5284V11.078H74.9084V24ZM71.7104 17.786L71.7364 18.67C71.7018 18.9127 71.6151 19.268 71.4764 19.736C71.3378 20.1867 71.1211 20.672 70.8264 21.192C70.5491 21.712 70.1851 22.2147 69.7344 22.7C69.2838 23.168 68.7291 23.558 68.0704 23.87C67.4118 24.1647 66.6318 24.312 65.7304 24.312C65.0198 24.312 64.3178 24.2253 63.6244 24.052C62.9484 23.8787 62.3331 23.5927 61.7784 23.194C61.2238 22.778 60.7818 22.2233 60.4524 21.53C60.1231 20.8367 59.9584 19.9613 59.9584 18.904V11.078H63.3384V18.332C63.3384 19.164 63.4684 19.8227 63.7284 20.308C64.0058 20.776 64.4044 21.1053 64.9244 21.296C65.4444 21.4867 66.0598 21.582 66.7704 21.582C67.7064 21.582 68.5124 21.3827 69.1884 20.984C69.8644 20.568 70.4104 20.0653 70.8264 19.476C71.2598 18.8867 71.5544 18.3233 71.7104 17.786ZM92.6238 11.078L85.9158 18.28L81.0798 24H76.9458L83.9398 16.434L88.5158 11.078H92.6238ZM76.9458 11.078H81.0798L85.9678 16.382L92.9878 24H88.8538L83.8358 18.358L76.9458 11.078ZM95.5157 24V7.178H105.214C107.467 7.178 109.174 7.55933 110.336 8.322C111.514 9.06733 112.104 10.1853 112.104 11.676C112.104 12.6293 111.87 13.3833 111.402 13.938C110.934 14.4753 110.266 14.874 109.4 15.134C108.55 15.394 107.545 15.5587 106.384 15.628L106.488 15.446C107.337 15.4633 108.134 15.524 108.88 15.628C109.642 15.732 110.31 15.9227 110.882 16.2C111.454 16.4773 111.904 16.8673 112.234 17.37C112.563 17.8553 112.728 18.4967 112.728 19.294C112.728 20.334 112.45 21.2007 111.896 21.894C111.341 22.57 110.57 23.0813 109.582 23.428C108.594 23.7747 107.45 23.9653 106.15 24H95.5157ZM98.9737 21.14H105.786C106.878 21.14 107.718 20.9667 108.308 20.62C108.897 20.256 109.192 19.684 109.192 18.904C109.192 18.332 109.018 17.916 108.672 17.656C108.325 17.396 107.866 17.24 107.294 17.188C106.722 17.1187 106.106 17.084 105.448 17.084H98.9737V21.14ZM98.9737 14.302H105.084C106.176 14.302 107.016 14.146 107.606 13.834C108.195 13.5047 108.49 12.95 108.49 12.17C108.49 11.39 108.195 10.844 107.606 10.532C107.016 10.2027 106.236 10.038 105.266 10.038H98.9737V14.302ZM121.653 24.286C120.37 24.286 119.2 24.0087 118.143 23.454C117.103 22.882 116.271 22.0933 115.647 21.088C115.04 20.0653 114.737 18.8867 114.737 17.552C114.737 16.1827 115.049 14.9953 115.673 13.99C116.297 12.9847 117.137 12.2047 118.195 11.65C119.269 11.078 120.483 10.792 121.835 10.792C123.325 10.792 124.521 11.0953 125.423 11.702C126.341 12.2913 127.009 13.0973 127.425 14.12C127.841 15.1427 128.049 16.2867 128.049 17.552C128.049 18.3147 127.927 19.0947 127.685 19.892C127.442 20.672 127.069 21.4 126.567 22.076C126.064 22.7347 125.405 23.272 124.591 23.688C123.776 24.0867 122.797 24.286 121.653 24.286ZM122.745 21.686C123.767 21.686 124.651 21.5127 125.397 21.166C126.142 20.8193 126.714 20.334 127.113 19.71C127.511 19.086 127.711 18.3667 127.711 17.552C127.711 16.668 127.503 15.9227 127.087 15.316C126.688 14.692 126.116 14.224 125.371 13.912C124.643 13.5827 123.767 13.418 122.745 13.418C121.306 13.418 120.188 13.7993 119.391 14.562C118.593 15.3073 118.195 16.304 118.195 17.552C118.195 18.384 118.385 19.112 118.767 19.736C119.148 20.3427 119.677 20.8193 120.353 21.166C121.046 21.5127 121.843 21.686 122.745 21.686ZM127.711 11.078H131.091V24H127.945C127.945 24 127.919 23.8353 127.867 23.506C127.832 23.1593 127.797 22.726 127.763 22.206C127.728 21.686 127.711 21.1747 127.711 20.672V11.078ZM134.15 11.078H137.53V24H134.15V11.078ZM143.536 10.792C144.333 10.792 145.07 10.896 145.746 11.104C146.422 11.312 147.011 11.6327 147.514 12.066C148.017 12.4993 148.407 13.054 148.684 13.73C148.961 14.3887 149.1 15.1773 149.1 16.096V24H145.72V16.694C145.72 15.602 145.451 14.8047 144.914 14.302C144.394 13.782 143.536 13.522 142.34 13.522C141.439 13.522 140.624 13.6953 139.896 14.042C139.168 14.3887 138.579 14.8307 138.128 15.368C137.677 15.888 137.417 16.434 137.348 17.006L137.322 15.68C137.409 15.0733 137.608 14.484 137.92 13.912C138.232 13.34 138.648 12.82 139.168 12.352C139.705 11.8667 140.338 11.4853 141.066 11.208C141.794 10.9307 142.617 10.792 143.536 10.792ZM152.411 5.878H155.791V24H152.411V5.878ZM166.685 11.078L158.989 17.864L159.067 15.784L167.283 24H162.993L155.869 16.746L162.083 11.078H166.685Z" fill="#1E272D"/>
<path d="M194.55 10.9474C194.55 10.1947 195.158 9.57895 195.9 9.57895C196.643 9.57895 197.25 10.1947 197.25 10.9474C197.25 11.7 196.643 12.3158 195.9 12.3158C195.158 12.3158 194.55 11.7 194.55 10.9474ZM185.1 9.57895H191.85V6.84211H185.1V9.57895ZM204 7.52632V17.0642L200.193 18.3505L197.925 26H190.5V23.2632H187.8V26H180.375C180.375 26 177 14.4232 177 10.2632C177 6.10316 180.321 2.73684 184.425 2.73684H191.175C192.404 1.08105 194.361 0 196.575 0C196.909 7.19653e-05 197.237 0.0838039 197.531 0.243734C197.825 0.403663 198.075 0.634823 198.26 0.916611C198.444 1.1984 198.557 1.52206 198.588 1.85876C198.619 2.19545 198.568 2.53471 198.438 2.84632C198.249 3.31158 198.087 3.84526 198.006 4.42L201.071 7.52632H204ZM201.3 10.2632H199.95L195.225 5.47368C195.225 4.58421 195.347 3.70842 195.576 2.86C194.267 3.20211 193.2 4.18737 192.755 5.47368H184.425C181.82 5.47368 179.7 7.62211 179.7 10.2632C179.7 12.8358 181.347 19.3632 182.4 23.2632H185.1V20.5263H193.2V23.2632H195.9L198.006 16.2158L201.3 15.0937V10.2632Z" fill="#FE5937"/>
</svg>
